<svg xmlns="http://www.w3.org/2000/svg" viewBox="0 0 24 24"><path fill="#0078D4" d="M24 7.387v10.478c0 .23-.08.43-.24.594-.16.165-.355.247-.585.247H13.5v-3h7.5V9.75l-7.5 5.25L7.5 9.75v5.456H6V7.387c0-.23.08-.43.24-.595.16-.164.355-.246.585-.246h10.35L12 11.25 6.825 6.546H17.175C17.405 6.546 17.6 6.628 17.76 6.792c.16.165.24.365.24.595zM0 4.5v15c0 .623.22 1.155.66 1.595.44.44.972.655 1.59.655h7.5V17.25H3V6.75h6.75v5.953L12 14.25l2.25-1.547V6.75H12V3H2.25C1.632 3 1.1 3.22.66 3.66.22 4.1 0 4.632 0 5.25z"/></svg>
